<mxfile host="app.diagrams.net" agent="Mozilla/5.0 (Windows NT 10.0; Win64; x64) AppleWebKit/537.36 (KHTML, like Gecko) Chrome/136.0.0.0 Safari/537.36" version="27.1.1">
  <diagram name="Page-1" id="oWZPnyiFGUpX4aPs0-iZ">
    <mxGraphModel dx="1426" dy="777" grid="1" gridSize="10" guides="1" tooltips="1" connect="1" arrows="1" fold="1" page="1" pageScale="1" pageWidth="827" pageHeight="1169" math="0" shadow="0">
      <root>
        <mxCell id="0" />
        <mxCell id="1" parent="0" />
        <mxCell id="q5vJHdLkVhRm4j2Vlr1L-14" value="" style="edgeStyle=orthogonalEdgeStyle;rounded=0;orthogonalLoop=1;jettySize=auto;html=1;" edge="1" parent="1" source="q5vJHdLkVhRm4j2Vlr1L-1" target="q5vJHdLkVhRm4j2Vlr1L-3">
          <mxGeometry relative="1" as="geometry" />
        </mxCell>
        <mxCell id="q5vJHdLkVhRm4j2Vlr1L-1" value="" style="ellipse;fillColor=strokeColor;html=1;" vertex="1" parent="1">
          <mxGeometry x="399" y="90" width="30" height="30" as="geometry" />
        </mxCell>
        <mxCell id="q5vJHdLkVhRm4j2Vlr1L-2" value="" style="ellipse;html=1;shape=endState;fillColor=strokeColor;" vertex="1" parent="1">
          <mxGeometry x="399" y="630" width="30" height="30" as="geometry" />
        </mxCell>
        <mxCell id="q5vJHdLkVhRm4j2Vlr1L-9" value="" style="edgeStyle=orthogonalEdgeStyle;rounded=0;orthogonalLoop=1;jettySize=auto;html=1;" edge="1" parent="1" source="q5vJHdLkVhRm4j2Vlr1L-3" target="q5vJHdLkVhRm4j2Vlr1L-4">
          <mxGeometry relative="1" as="geometry" />
        </mxCell>
        <mxCell id="q5vJHdLkVhRm4j2Vlr1L-3" value="Requested" style="rounded=1;whiteSpace=wrap;html=1;" vertex="1" parent="1">
          <mxGeometry x="354" y="160" width="120" height="60" as="geometry" />
        </mxCell>
        <mxCell id="q5vJHdLkVhRm4j2Vlr1L-10" value="" style="edgeStyle=orthogonalEdgeStyle;rounded=0;orthogonalLoop=1;jettySize=auto;html=1;" edge="1" parent="1" source="q5vJHdLkVhRm4j2Vlr1L-4" target="q5vJHdLkVhRm4j2Vlr1L-5">
          <mxGeometry relative="1" as="geometry" />
        </mxCell>
        <mxCell id="q5vJHdLkVhRm4j2Vlr1L-4" value="Confirmed" style="rounded=1;whiteSpace=wrap;html=1;" vertex="1" parent="1">
          <mxGeometry x="354" y="270" width="120" height="60" as="geometry" />
        </mxCell>
        <mxCell id="q5vJHdLkVhRm4j2Vlr1L-11" value="" style="edgeStyle=orthogonalEdgeStyle;rounded=0;orthogonalLoop=1;jettySize=auto;html=1;" edge="1" parent="1" source="q5vJHdLkVhRm4j2Vlr1L-5" target="q5vJHdLkVhRm4j2Vlr1L-6">
          <mxGeometry relative="1" as="geometry" />
        </mxCell>
        <mxCell id="q5vJHdLkVhRm4j2Vlr1L-5" value="Completed" style="rounded=1;whiteSpace=wrap;html=1;" vertex="1" parent="1">
          <mxGeometry x="354" y="390" width="120" height="60" as="geometry" />
        </mxCell>
        <mxCell id="q5vJHdLkVhRm4j2Vlr1L-13" value="" style="edgeStyle=orthogonalEdgeStyle;rounded=0;orthogonalLoop=1;jettySize=auto;html=1;" edge="1" parent="1" source="q5vJHdLkVhRm4j2Vlr1L-6" target="q5vJHdLkVhRm4j2Vlr1L-2">
          <mxGeometry relative="1" as="geometry" />
        </mxCell>
        <mxCell id="q5vJHdLkVhRm4j2Vlr1L-6" value="Feedback Submitted" style="rounded=1;whiteSpace=wrap;html=1;" vertex="1" parent="1">
          <mxGeometry x="354" y="500" width="120" height="60" as="geometry" />
        </mxCell>
        <mxCell id="q5vJHdLkVhRm4j2Vlr1L-15" value="Appointment Created" style="text;strokeColor=none;align=center;fillColor=none;html=1;verticalAlign=middle;whiteSpace=wrap;rounded=0;" vertex="1" parent="1">
          <mxGeometry x="417" y="122" width="130" height="30" as="geometry" />
        </mxCell>
        <mxCell id="q5vJHdLkVhRm4j2Vlr1L-16" value="Confirm Appointment" style="text;strokeColor=none;align=center;fillColor=none;html=1;verticalAlign=middle;whiteSpace=wrap;rounded=0;" vertex="1" parent="1">
          <mxGeometry x="427" y="230" width="130" height="30" as="geometry" />
        </mxCell>
        <mxCell id="q5vJHdLkVhRm4j2Vlr1L-17" value="Consultation Completed”" style="text;strokeColor=none;align=center;fillColor=none;html=1;verticalAlign=middle;whiteSpace=wrap;rounded=0;" vertex="1" parent="1">
          <mxGeometry x="416" y="340" width="170" height="30" as="geometry" />
        </mxCell>
        <mxCell id="q5vJHdLkVhRm4j2Vlr1L-18" value="Submit Feedback" style="text;strokeColor=none;align=center;fillColor=none;html=1;verticalAlign=middle;whiteSpace=wrap;rounded=0;" vertex="1" parent="1">
          <mxGeometry x="429" y="460" width="130" height="30" as="geometry" />
        </mxCell>
      </root>
    </mxGraphModel>
  </diagram>
</mxfile>
